Compassion Dharani.mp4
Format                                   : MPEG-4
Format profile                           : Base Media
Codec ID                                 : isom
File size                                : 25.2 MiB
Duration                                 : 5mn 21s
Overall bit rate mode                    : Variable
Overall bit rate                         : 656 Kbps
Writing application                      : Lavf52.94.0

Video
ID                                       : 1
Format                                   : AVC
Format/Info                              : Advanced Video Codec
Format profile                           : Main@L3.0
Format settings, CABAC                   : Yes
Format settings, ReFrames                : 2 frames
Codec ID                                 : avc1
Codec ID/Info                            : Advanced Video Coding
Duration                                 : 5mn 21s
Bit rate                                 : 526 Kbps
Width                                    : 720 pixels
Height                                   : 480 pixels
Display aspect ratio                     : 3:2
Frame rate mode                          : Constant
Frame rate                               : 25.000 fps
Standard                                 : NTSC
Color space                              : YUV
Chroma subsampling                       : 4:2:0
Bit depth                                : 8 bits
Scan type                                : Progressive
Bits/(Pixel*Frame)                       : 0.061
Stream size                              : 20.1 MiB (80%)
Writing library                          : x264 core 112 r1834 a51816a


Audio
ID                                       : 2
Format                                   : AAC
Format/Info                              : Advanced Audio Codec
Format profile                           : LC
Codec ID                                 : 40
Duration                                 : 5mn 21s
Bit rate mode                            : Variable
Bit rate                                 : 128 Kbps
Channel(s)                               : 2 channels
Channel positions                        : Front: L R
Sampling rate                            : 44.1 KHz
Compression mode                         : Lossy
Stream size                              : 4.91 MiB (19%)
